<?xml version="1.0" encoding="iso-8859-1"?>
<!-- Generator: Adobe Illustrator 19.0.0, SVG Export Plug-In . SVG Version: 6.00 Build 0)  -->
<svg xmlns="http://www.w3.org/2000/svg" xmlns:xlink="http://www.w3.org/1999/xlink" version="1.1" id="Capa_1" x="0px" y="0px" viewBox="0 0 512 512" style="enable-background:new 0 0 512 512;" xml:space="preserve" width="512px" height="512px">
<g>
	<g>
		<rect x="175" y="328.5" width="16" height="15" fill="#FFFFFF"/>
	</g>
</g>
<g>
	<g>
		<rect x="223" y="328.5" width="16" height="15" fill="#FFFFFF"/>
	</g>
</g>
<g>
	<g>
		<rect x="271" y="328.5" width="16" height="15" fill="#FFFFFF"/>
	</g>
</g>
<g>
	<g>
		<path d="M0,72.5v303h176v24c0,13.51-10.991,25-24.5,25H135v15h192v-15h-15.5c-13.509,0-24.5-11.49-24.5-25v-24h33v-15H15v-273h433    v184h15v-199H0z M191,399.5v-24h81v24c0,9.25,3.205,18,8.551,25h-98.102C187.795,417.5,191,408.75,191,399.5z" fill="#FFFFFF"/>
	</g>
</g>
<g>
	<g>
		<rect x="39" y="312.5" width="48" height="15" fill="#FFFFFF"/>
	</g>
</g>
<g>
	<g>
		<rect x="39" y="280.5" width="80" height="15" fill="#FFFFFF"/>
	</g>
</g>
<g>
	<g>
		<path d="M480.002,333.458L480,311.5h8v-15h-64v15h9v21.707c-11.934,5.58-21.318,15.293-26.76,27.293H391v-49h9v-15h-64v15h8v104    c0,12.958,10.542,23.5,23.5,23.5s23.5-10.542,23.5-23.5v-40h10.662c-0.432,2-0.662,5.373-0.662,8.25    c0,30.603,24.897,55.375,55.5,55.375c30.603,0,55.5-24.835,55.5-55.437C512,362.021,499.342,342.502,480.002,333.458z M376,415.5    c0,4.686-3.813,8.5-8.5,8.5s-8.5-3.814-8.5-8.5v-24h17V415.5z M376,376.5h-17v-65h17V376.5z M442.999,345.553l5.001-2.018V311.5    h17.001l0.003,32.286l5,1.893c13.746,4.859,23.647,16.821,26.29,30.821h-79.586C419.349,362.5,429.251,350.411,442.999,345.553z     M456.5,424.5c-19.768,0-36.264-15-39.793-33h79.585C492.764,409.5,476.268,424.5,456.5,424.5z" fill="#FFFFFF"/>
	</g>
</g>
<g>
	<g>
		<path d="M351,239.501c0-10.336-6.71-19.128-16-22.266v-21.721l44.66-29.773l-8.32-12.48l-43.84,29.227l-25.311-16.874    c0.526-1.95,0.811-3.998,0.811-6.112c0-12.958-10.542-23.5-23.5-23.5S256,146.542,256,159.5c0,2.114,0.285,4.162,0.811,6.112    L231.5,182.486l-40.5-27V127.5h-15v27.986l-26.143,17.429c-3.974-3.077-8.954-4.915-14.357-4.915s-10.383,1.838-14.357,4.915    L91.66,153.26l-8.32,12.48l29.471,19.647c-0.526,1.95-0.811,3.998-0.811,6.112c0,10.336,6.71,19.128,16,22.266v29.748    l32.811,21.874c-0.526,1.95-0.811,3.998-0.811,6.112c0,12.958,10.542,23.5,23.5,23.5s23.5-10.542,23.5-23.5    c0-2.114-0.285-4.162-0.811-6.112l25.311-16.874l48,32l33.643-22.429c3.974,3.077,8.954,4.915,14.357,4.915    c5.403,0,10.383-1.838,14.357-4.915l29.483,19.656l8.32-12.48l-29.471-19.647C350.715,243.663,351,241.615,351,239.501z     M135.5,200c-4.687,0-8.5-3.814-8.5-8.5c0-4.686,3.813-8.5,8.5-8.5s8.5,3.814,8.5,8.5C144,196.186,140.187,200,135.5,200z     M183.5,280c-4.687,0-8.5-3.814-8.5-8.5c0-4.686,3.813-8.5,8.5-8.5s8.5,3.814,8.5,8.5C192,276.186,188.187,280,183.5,280z     M224,235.486l-26.143,17.429c-3.974-3.077-8.954-4.915-14.357-4.915c-5.404,0-10.383,1.838-14.357,4.915L143,235.486v-21.721    c9.29-3.138,16-11.93,16-22.266c0-2.114-0.285-4.162-0.811-6.112l25.311-16.874l40.5,27V235.486z M279.5,151    c4.687,0,8.5,3.814,8.5,8.5c0,4.686-3.813,8.5-8.5,8.5s-8.5-3.814-8.5-8.5C271,154.814,274.813,151,279.5,151z M304,239.5    c0,2.114,0.285,4.162,0.811,6.112L279.5,262.486l-40.5-27v-39.973l26.143-17.429c3.974,3.077,8.954,4.915,14.357,4.915    c5.403,0,10.383-1.838,14.357-4.915L320,195.514v21.721C310.71,220.372,304,229.164,304,239.5z M327.5,248    c-4.687,0-8.5-3.814-8.5-8.5c0-4.686,3.813-8.5,8.5-8.5s8.5,3.814,8.5,8.5C336,244.186,332.187,248,327.5,248z" fill="#FFFFFF"/>
	</g>
</g>
<g>
</g>
<g>
</g>
<g>
</g>
<g>
</g>
<g>
</g>
<g>
</g>
<g>
</g>
<g>
</g>
<g>
</g>
<g>
</g>
<g>
</g>
<g>
</g>
<g>
</g>
<g>
</g>
<g>
</g>
</svg>
