<svg width="180" height="138" viewBox="0 0 180 138" xmlns="http://www.w3.org/2000/svg" xmlns:xlink="http://www.w3.org/1999/xlink"><title>“</title><desc>Created using Figma</desc><use xlink:href="#a" fill="#2B2B2B"/><defs><path id="a" fill-rule="evenodd" d="M11.525 137.86C3.842 117.763 0 97.815 0 78.015 0 55.262 6.206 36.57 18.618 21.942 31.028 7.314 49.203 0 73.14 0v34.575c-16.253 0-24.38 11.082-24.38 33.246v4.877h31.916v65.162h-69.15zm99.294 0c-7.39-19.21-11.083-39.157-11.083-59.844 0-22.754 6.132-41.446 18.396-56.074C130.397 7.314 148.497 0 172.433 0v34.575c-16.252 0-24.38 11.082-24.38 33.246v4.877h31.917v65.162h-69.15z"/></defs></svg>