<?xml version="1.0" encoding="UTF-8" standalone="no"?>
<svg width="50px" height="50px" viewBox="0 0 50 50" version="1.1" xmlns="http://www.w3.org/2000/svg" xmlns:xlink="http://www.w3.org/1999/xlink">
    <!-- Generator: Sketch 3.8.3 (29802) - http://www.bohemiancoding.com/sketch -->
    <title>calender</title>
    <desc>Created with Sketch.</desc>
    <defs></defs>
    <g id="Page-1" stroke="none" stroke-width="1" fill="none" fill-rule="evenodd">
        <g id="calender" fill="#ED6464">
            <g id="Group">
                <path d="M43.3720339,34.2618644 L38.629661,41.0754237 L35.2830508,38.3288136 C34.9220339,38.0305085 34.3872881,38.0847458 34.090678,38.4457627 C33.7932203,38.8076271 33.8457627,39.3423729 34.2084746,39.6381356 L38.2644068,42.9677966 C38.4169492,43.0932203 38.6067797,43.1610169 38.8016949,43.1610169 C38.8398305,43.1610169 38.8788136,43.1584746 38.9177966,43.1525424 C39.1516949,43.120339 39.3618644,42.9915254 39.4974576,42.7974576 L44.7635593,35.2305085 C45.0305085,34.8466102 44.9364407,34.3186441 44.5516949,34.0508475 C44.1661017,33.7805085 43.6389831,33.8771186 43.3720339,34.2618644 L43.3720339,34.2618644 Z" id="Shape"></path>
                <path d="M44.0677966,29.2194915 L44.0677966,12.7118644 L44.0677966,4.23728814 C44.0677966,3.76864407 43.6881356,3.38983051 43.220339,3.38983051 L38.9830508,3.38983051 L38.9830508,0.847457627 C38.9830508,0.378813559 38.6033898,0 38.1355932,0 L32.2033898,0 C31.7355932,0 31.3559322,0.378813559 31.3559322,0.847457627 L31.3559322,3.38983051 L12.7118644,3.38983051 L12.7118644,0.847457627 C12.7118644,0.378813559 12.3322034,0 11.8644068,0 L5.93220339,0 C5.46440678,0 5.08474576,0.378813559 5.08474576,0.847457627 L5.08474576,3.38983051 L0.847457627,3.38983051 C0.379661017,3.38983051 0,3.76864407 0,4.23728814 L0,12.7118644 L0,47.4576271 C0,47.9262712 0.379661017,48.3050847 0.847457627,48.3050847 L33.1389831,48.3050847 C34.8355932,49.3728814 36.8355932,50 38.9830508,50 C45.0576271,50 50,45.0576271 50,38.9830508 C50,34.7432203 47.5881356,31.0601695 44.0677966,29.2194915 L44.0677966,29.2194915 L44.0677966,29.2194915 Z M33.0508475,1.69491525 L37.2881356,1.69491525 L37.2881356,4.23728814 L37.2881356,6.77966102 L33.0508475,6.77966102 L33.0508475,4.23728814 L33.0508475,1.69491525 L33.0508475,1.69491525 L33.0508475,1.69491525 Z M6.77966102,1.69491525 L11.0169492,1.69491525 L11.0169492,4.23728814 L11.0169492,6.77966102 L6.77966102,6.77966102 L6.77966102,4.23728814 L6.77966102,1.69491525 L6.77966102,1.69491525 L6.77966102,1.69491525 Z M1.69491525,5.08474576 L5.08474576,5.08474576 L5.08474576,7.62711864 C5.08474576,8.09576271 5.46440678,8.47457627 5.93220339,8.47457627 L11.8644068,8.47457627 C12.3322034,8.47457627 12.7118644,8.09576271 12.7118644,7.62711864 L12.7118644,5.08474576 L31.3559322,5.08474576 L31.3559322,7.62711864 C31.3559322,8.09576271 31.7355932,8.47457627 32.2033898,8.47457627 L38.1355932,8.47457627 C38.6033898,8.47457627 38.9830508,8.09576271 38.9830508,7.62711864 L38.9830508,5.08474576 L42.3728814,5.08474576 L42.3728814,11.8644068 L1.69491525,11.8644068 L1.69491525,5.08474576 L1.69491525,5.08474576 L1.69491525,5.08474576 Z M1.69491525,46.6101695 L1.69491525,13.559322 L42.3728814,13.559322 L42.3728814,28.5050847 C42.2067797,28.4516949 42.0372881,28.4084746 41.8677966,28.3618644 C41.7110169,28.3186441 41.5542373,28.2762712 41.3957627,28.2398305 C41.2525424,28.2076271 41.1076271,28.179661 40.9627119,28.1533898 C40.7559322,28.1152542 40.5483051,28.0838983 40.3398305,28.0576271 C40.2237288,28.0432203 40.1084746,28.0271186 39.9915254,28.0161017 C39.6576271,27.9864407 39.3211864,27.9661017 38.9830508,27.9661017 C38.6966102,27.9661017 38.4161017,27.9872881 38.1355932,28.009322 L38.1355932,27.1186441 L38.1355932,25.4237288 L38.1355932,17.7966102 L30.5084746,17.7966102 L28.8135593,17.7966102 L22.8813559,17.7966102 L21.1864407,17.7966102 L15.2542373,17.7966102 L13.559322,17.7966102 L5.93220339,17.7966102 L5.93220339,25.4237288 L5.93220339,27.1186441 L5.93220339,33.0508475 L5.93220339,34.7457627 L5.93220339,42.3728814 L13.559322,42.3728814 L15.2542373,42.3728814 L21.1864407,42.3728814 L22.8813559,42.3728814 L28.5050847,42.3728814 C28.529661,42.4474576 28.5601695,42.5194915 28.5855932,42.5932203 C28.6567797,42.7991525 28.7271186,43.0059322 28.8110169,43.2067797 C28.8576271,43.3194915 28.9127119,43.4271186 28.9635593,43.5372881 C29.0610169,43.7525424 29.1601695,43.9669492 29.2711864,44.1754237 C29.320339,44.2661017 29.3754237,44.3533898 29.4271186,44.4432203 C29.5525424,44.6627119 29.679661,44.879661 29.820339,45.0898305 C29.8720339,45.1669492 29.9288136,45.2398305 29.9822034,45.3161017 C30.1313559,45.5279661 30.2838983,45.7381356 30.4491525,45.9398305 C30.5101695,46.0144068 30.5762712,46.0838983 30.6389831,46.1567797 C30.770339,46.309322 30.8957627,46.4652542 31.0355932,46.6110169 L1.69491525,46.6110169 L1.69491525,46.6101695 L1.69491525,46.6101695 Z M34.1635593,29.0915254 C34.0720339,29.1355932 33.9788136,29.1771186 33.8889831,29.2237288 C33.729661,29.3067797 33.5754237,29.3983051 33.4211864,29.4889831 C33.2864407,29.5677966 33.1516949,29.6483051 33.020339,29.7322034 C32.8872881,29.8186441 32.7576271,29.9067797 32.6288136,29.9983051 C32.4822034,30.1016949 32.3398305,30.2101695 32.1983051,30.320339 C32.0847458,30.409322 31.9711864,30.4974576 31.8618644,30.5915254 C31.7135593,30.7169492 31.5720339,30.85 31.4305085,30.9830508 C31.3330508,31.0754237 31.2322034,31.1644068 31.1381356,31.259322 C30.9847458,31.4152542 30.8398305,31.5805085 30.6957627,31.7457627 C30.6347458,31.8161017 30.5677966,31.8805085 30.5076271,31.9525424 L30.5076271,27.1186441 L36.4398305,27.1186441 L36.4398305,28.2728814 C36.4254237,28.2762712 36.4118644,28.2813559 36.3983051,28.2847458 C35.6177966,28.4737288 34.870339,28.7457627 34.1635593,29.0915254 L34.1635593,29.0915254 L34.1635593,29.0915254 Z M28.4491525,35.7618644 C28.4194915,35.859322 28.4,35.959322 28.3728814,36.0576271 C28.3050847,36.3033898 28.2355932,36.5491525 28.1847458,36.8025424 C28.1449153,36.9983051 28.1228814,37.1983051 28.0940678,37.3966102 C28.0711864,37.5567797 28.0389831,37.7144068 28.0220339,37.8771186 C27.9855932,38.2423729 27.9661017,38.6118644 27.9661017,38.9830508 C27.9661017,39.2889831 27.9830508,39.5983051 28.0110169,39.9084746 C28.0161017,39.9652542 28.0161017,40.0228814 28.0220339,40.079661 C28.0355932,40.2169492 28.0627119,40.35 28.0813559,40.4855932 L28.0813559,40.4864407 C28.090678,40.5508475 28.0940678,40.6144068 28.1042373,40.6779661 L22.8813559,40.6779661 L22.8813559,34.7457627 L28.8135593,34.7457627 L28.8135593,34.7516949 C28.8050847,34.7720339 28.8,34.7932203 28.7915254,34.8135593 C28.6644068,35.1228814 28.5483051,35.4389831 28.4491525,35.7618644 L28.4491525,35.7618644 L28.4491525,35.7618644 Z M7.62711864,34.7457627 L13.559322,34.7457627 L13.559322,40.6779661 L7.62711864,40.6779661 L7.62711864,34.7457627 L7.62711864,34.7457627 L7.62711864,34.7457627 Z M7.62711864,27.1186441 L13.559322,27.1186441 L13.559322,33.0508475 L7.62711864,33.0508475 L7.62711864,27.1186441 L7.62711864,27.1186441 L7.62711864,27.1186441 Z M36.440678,25.4237288 L30.5084746,25.4237288 L30.5084746,19.4915254 L36.440678,19.4915254 L36.440678,25.4237288 L36.440678,25.4237288 L36.440678,25.4237288 Z M28.8135593,25.4237288 L22.8813559,25.4237288 L22.8813559,19.4915254 L28.8135593,19.4915254 L28.8135593,25.4237288 L28.8135593,25.4237288 L28.8135593,25.4237288 Z M28.8135593,33.0508475 L22.8813559,33.0508475 L22.8813559,27.1186441 L28.8135593,27.1186441 L28.8135593,33.0508475 L28.8135593,33.0508475 L28.8135593,33.0508475 Z M15.2542373,27.1186441 L21.1864407,27.1186441 L21.1864407,33.0508475 L15.2542373,33.0508475 L15.2542373,27.1186441 L15.2542373,27.1186441 L15.2542373,27.1186441 Z M21.1864407,25.4237288 L15.2542373,25.4237288 L15.2542373,19.4915254 L21.1864407,19.4915254 L21.1864407,25.4237288 L21.1864407,25.4237288 L21.1864407,25.4237288 Z M13.559322,25.4237288 L7.62711864,25.4237288 L7.62711864,19.4915254 L13.559322,19.4915254 L13.559322,25.4237288 L13.559322,25.4237288 L13.559322,25.4237288 Z M15.2542373,34.7457627 L21.1864407,34.7457627 L21.1864407,40.6779661 L15.2542373,40.6779661 L15.2542373,34.7457627 L15.2542373,34.7457627 L15.2542373,34.7457627 Z M38.9830508,48.3050847 C37.0694915,48.3050847 35.2889831,47.7237288 33.8076271,46.7305085 C33.5186441,46.5372881 33.2457627,46.3271186 32.9838983,46.1067797 C32.8923729,46.0288136 32.8059322,45.9457627 32.7177966,45.8644068 C32.5508475,45.7127119 32.3889831,45.5567797 32.2347458,45.3949153 C32.1355932,45.290678 32.0398305,45.1847458 31.9457627,45.0771186 C31.8067797,44.9169492 31.6762712,44.7516949 31.5491525,44.5830508 C31.4677966,44.4754237 31.3838983,44.3711864 31.3067797,44.2601695 C31.1194915,43.9881356 30.9432203,43.7084746 30.7855932,43.4186441 C30.7491525,43.3508475 30.720339,43.279661 30.6855932,43.2110169 C30.5618644,42.9686441 30.4466102,42.7228814 30.3440678,42.470339 C30.3,42.3601695 30.2618644,42.2474576 30.2211864,42.1355932 C30.1415254,41.9135593 30.0686441,41.6881356 30.0050847,41.4601695 C29.990678,41.4076271 29.9779661,41.3550847 29.9644068,41.3025424 C29.8686441,40.929661 29.7983051,40.559322 29.7483051,40.190678 C29.7449153,40.1644068 29.7398305,40.1381356 29.7364407,40.1110169 C29.6872881,39.7305085 29.6610169,39.3533898 29.6610169,38.9830508 C29.6610169,38.6618644 29.6771186,38.3432203 29.7101695,38.0271186 C29.7127119,38.0008475 29.7194915,37.9754237 29.7220339,37.9491525 C29.7542373,37.6601695 29.7966102,37.3720339 29.8559322,37.0881356 C29.8618644,37.0610169 29.8711864,37.0347458 29.8771186,37.0076271 C29.9381356,36.7262712 30.0101695,36.4466102 30.0974576,36.170339 C30.1076271,36.1381356 30.1220339,36.1067797 30.1322034,36.0745763 C30.2194915,35.8101695 30.3161017,35.5474576 30.4279661,35.2898305 C30.5330508,35.0474576 30.6466102,34.809322 30.7711864,34.5779661 L30.8550847,34.4330508 C30.8889831,34.3720339 30.9288136,34.3144068 30.9644068,34.2542373 C31.1118644,34.0059322 31.2694915,33.7652542 31.4364407,33.5330508 C31.4779661,33.4754237 31.5211864,33.4186441 31.5644068,33.3618644 C31.7169492,33.1601695 31.8779661,32.9661017 32.0457627,32.7788136 C32.1042373,32.7135593 32.1627119,32.6474576 32.2228814,32.5838983 C32.3889831,32.4076271 32.5635593,32.240678 32.7423729,32.0788136 C32.8059322,32.0211864 32.8677966,31.9618644 32.9330508,31.9059322 C33.1432203,31.7262712 33.3610169,31.5576271 33.5855932,31.3974576 C33.6211864,31.3720339 33.6550847,31.3440678 33.690678,31.3186441 C34.7966102,30.5542373 36.0669492,30.0305085 37.429661,29.8016949 L37.4474576,29.7991525 C37.9474576,29.7152542 38.4584746,29.6610169 38.9830508,29.6610169 C39.3127119,29.6610169 39.640678,29.6788136 39.9661017,29.7144068 C40.0169492,29.7194915 40.0661017,29.7313559 40.1169492,29.7372881 C40.3949153,29.7720339 40.6720339,29.8135593 40.9457627,29.8728814 C40.979661,29.8805085 41.0118644,29.890678 41.0449153,29.8983051 C41.3364407,29.9652542 41.6254237,30.0432203 41.9110169,30.1389831 C41.9305085,30.1457627 41.9491525,30.1533898 41.9686441,30.1601695 C42.2610169,30.2601695 42.5491525,30.3745763 42.8347458,30.5042373 C46.0567797,31.9737288 48.3050847,35.2177966 48.3050847,38.9830508 C48.3050847,44.1228814 44.1228814,48.3050847 38.9830508,48.3050847 L38.9830508,48.3050847 L38.9830508,48.3050847 Z" id="Shape"></path>
            </g>
        </g>
    </g>
</svg>